<?xml version="1.0" encoding="utf-8"?>
<!-- Generator: Adobe Illustrator 19.0.0, SVG Export Plug-In . SVG Version: 6.00 Build 0)  -->
<svg version="1.1" id="图层_1" xmlns="http://www.w3.org/2000/svg" xmlns:xlink="http://www.w3.org/1999/xlink" x="0px" y="0px"
	 viewBox="212 -169.5 1063.3 1000" style="enable-background:new 212 -169.5 1063.3 1000;" xml:space="preserve">
<style type="text/css">
	.st0{fill:#FFFFFF;}
	.st1{opacity:0.6;}
</style>
<g id="_x31_ef8eb6b-2ede-4d4b-8793-0f4df74bbb33.psd">
	<g id="AI">
		<g id="形状_1_拷贝_3">
			<g>
				<path class="st0" d="M757.5,240.6l-12.9,53c37.5,14.1,79.2,19.3,125.3,15.4l-16.6-68.4H757.5z M1155.1-6.1
					c-18.1-67.5-58.5-114.4-121.2-140.8c-62.7-26.4-131.6-29.6-206.6-9.5c-85.8,23-148.4,59.6-187.9,109.9
					C600,3.7,589.5,63.5,608.1,132.9c15.8,58.9,44,103.2,84.6,133l54.8-208.4c10-38.5,40-42.3,57.9-42.3c17.9,0,47.9,3.7,57.9,42.3
					L927,300.1c6.7-1.5,13.5-3.1,20.4-4.9V107.6c0-4.6,3.7-8.3,8.3-8.3H994c4.6,0,8.3,3.7,8.3,8.3v169.6c57-22.7,99.7-54,127.9-94.1
					C1166.7,131.2,1175,68.2,1155.1-6.1z M1003.6,59.9c0,4.6-3.7,8.3-8.3,8.3h-40.4c-4.6,0-8.7-3.7-8.7-8.3V23.5
					c0-4.6,4.2-8.3,8.7-8.3h40.4c4.6,0,8.3,3.7,8.3,8.3V59.9z M805.4,63.7c-4.2,0-5.4,1.7-6.7,6.6l-30,123.1H842l-30-123.1
					C810.8,65.3,809.6,63.7,805.4,63.7z"/>
			</g>
		</g>
		<g id="形状_1_拷贝_11">
			<g>
				<path class="st0" d="M319.9,536.4c0.5,2.1,2.3,3.9,4.4,3.9h24.6c2.3,0,4.2-1.6,4.2-3.9l-0.2-1.2l-38.1-145.6
					c-5.6-21.6-22.3-23.7-32.3-23.7c-10,0-26.7,2.1-32.3,23.7l-38.1,145.6l-0.2,1.2c0,2.3,1.9,3.9,4.2,3.9h24.6
					c2.1,0,3.9-1.9,4.4-3.9l10.7-44.1h53.4L319.9,536.4z M262.1,465.8l16.7-69c0.7-2.8,1.4-3.7,3.7-3.7c2.3,0,3,0.9,3.7,3.7l16.7,69
					H262.1z M469.3,483.9V466c0-36.2-18.1-58.3-55.5-58.3c-14.9,0-32.3,2.3-46.6,6c-5.3,1.4-6.3,2.8-6.3,6.3v161.7
					c0,2.6,2.1,4.6,4.6,4.6h21.3c2.6,0,4.6-2.1,4.6-4.6v-41.1c8.6,1.2,16.7,1.6,22.3,1.6C451.2,542.2,469.3,520.1,469.3,483.9z
					 M391.6,434.4c4.4-0.9,13.9-1.6,22.3-1.6c20,0,24.8,14.2,24.8,33.2v17.9c0,19-4.9,33.2-24.8,33.2c-5.6,0-15.8-0.7-22.3-1.6
					V434.4z M591.6,483.9V466c0-36.2-18.1-58.3-55.5-58.3c-14.9,0-32.3,2.3-46.6,6c-5.3,1.4-6.3,2.8-6.3,6.3v161.7
					c0,2.6,2.1,4.6,4.6,4.6h21.3c2.6,0,4.6-2.1,4.6-4.6v-41.1c8.6,1.2,16.7,1.6,22.3,1.6C573.5,542.2,591.6,520.1,591.6,483.9z
					 M561,483.9c0,19-4.9,33.2-24.8,33.2c-5.6,0-15.8-0.7-22.3-1.6v-81.1c4.4-0.9,13.9-1.6,22.3-1.6c20,0,24.8,14.2,24.8,33.2V483.9
					z M611.3,540.3h21.6c2.6,0,4.4-2.3,4.4-4.9V368.2c0-2.6-1.9-4.6-4.4-4.6h-21.6c-2.5,0-4.6,2.1-4.6,4.6v167.2
					C606.7,538,608.7,540.3,611.3,540.3z M683.7,409.3h-21.4c-2.6,0-4.6,2.1-4.6,4.6v121.5c0,2.6,2.1,4.9,4.6,4.9h21.4
					c2.6,0,4.6-2.3,4.6-4.9V414C688.3,411.4,686.2,409.3,683.7,409.3z M661.9,391.9h22.5c2.6,0,4.6-2.1,4.6-4.6v-20.4
					c0-2.6-2.1-4.6-4.6-4.6h-22.5c-2.6,0-4.9,2.1-4.9,4.6v20.4C657,389.8,659.3,391.9,661.9,391.9z M790.7,533.1V518
					c0-2.3-1.9-3.5-4.2-3.5h-0.7c-9.3,1.2-14.9,1.6-29.9,1.6c-10.9,0-22.3-6.3-22.3-30.4v-21.6c0-24.2,11.4-30.4,22.3-30.4
					c15.1,0,20.7,0.5,29.9,1.6h0.7c2.3,0,4.2-1.2,4.2-3.5v-15.1c0-3.7-0.9-5.1-4.9-6c-5.3-1.4-15.8-3-29.9-3
					c-30.2,0-52.9,18.6-52.9,56.4v21.6c0,37.9,22.7,56.4,52.9,56.4c14.2,0,24.6-1.6,29.9-3C789.7,538.2,790.7,536.8,790.7,533.1z
					 M850.5,407.7c-16,0-29.5,1.9-38.8,3.7c-3,0.7-4.4,2.3-4.4,4.9v14.9c0,3.3,1.9,3.9,4.2,3.9h1.2c7.7-0.9,23-1.9,37.8-1.9
					c13.7,0,20.4,3.7,20.4,18.8v10.2h-14.6c-40.4,0-56.6,13.7-56.6,40.2v0.9c0,31.4,20.9,38.8,40.1,38.8c11.1,0,22-3.7,32.7-10.2
					v3.7c0,2.6,2.1,4.6,4.6,4.6h19.7c2.5,0,4.6-2.1,4.6-4.6v-83.6C901.6,422.3,883.5,407.7,850.5,407.7z M870.9,511.3
					c-6.7,3.7-15.3,6.5-23.7,6.5c-11.6,0-16.7-3-16.7-14.4v-0.9c0-13,4.6-19.7,25.8-19.7h14.6V511.3z M981.8,518.3h-12.3
					c-8.4,0-9.1-1.4-9.1-13v-72.9h20.9c2.6,0,4.6-2.1,4.6-4.6V414c0-2.6-2.1-4.6-4.6-4.6h-20.9v-23.9c0-2.3-1.6-3.5-3.7-3.5h-0.9
					l-21.6,3.7c-2.6,0.5-4.6,2.1-4.6,4.6v19h-21.8c-2.6,0-4.6,2.1-4.6,4.6v10.5c0,2.6,2.1,4.2,4.6,4.6l21.8,3.3v72.9
					c0,31.1,10.7,36.9,36.9,36.9c5.1,0,10.2-0.7,15.8-1.6c3-0.5,4.4-1.9,4.4-4.2v-14.6C986.7,519.4,984.8,518.3,981.8,518.3z
					 M1022.7,409.3h-21.4c-2.5,0-4.6,2.1-4.6,4.6v121.5c0,2.6,2.1,4.9,4.6,4.9h21.4c2.6,0,4.6-2.3,4.6-4.9V414
					C1027.3,411.4,1025.2,409.3,1022.7,409.3z M1023.3,362.2h-22.5c-2.6,0-4.9,2.1-4.9,4.6v20.4c0,2.6,2.3,4.6,4.9,4.6h22.5
					c2.5,0,4.6-2.1,4.6-4.6v-20.4C1028,364.3,1025.9,362.2,1023.3,362.2z M1098.1,407.7c-36.4,0-55.5,24.6-55.5,57.8v18.8
					c0,33.2,19,57.8,55.5,57.8c36.4,0,55.5-24.6,55.5-57.8v-18.8C1153.5,432.3,1134.5,407.7,1098.1,407.7z M1122.9,484.3
					c0,19-8.6,31.4-24.8,31.4c-16.2,0-24.8-12.3-24.8-31.4v-18.8c0-19,8.6-31.4,24.8-31.4c16.2,0,24.8,12.3,24.8,31.4V484.3z
					 M1235.2,407.7c-15.3,0-24.1,2.6-37.6,11.1V414c0-2.6-2.1-4.6-4.6-4.6h-20.2c-2.6,0-4.6,2.1-4.6,4.6v121.5
					c0,2.6,2.1,4.9,4.6,4.9h21.3c2.6,0,4.6-2.3,4.6-4.9v-93.4c9.7-5.1,18.3-8.4,26.2-8.4c17.9,0,19.7,5.8,19.7,26v75.7
					c0,2.6,2.1,4.9,4.6,4.9h21.3c2.6,0,4.6-2.3,4.6-4.9v-75.7C1275.3,430.2,1268.6,407.7,1235.2,407.7z M251.1,610.5h-22.9
					c-2.5,0-4.6,1.9-4.6,4.4v163.7c0,2.6,2.1,4.6,4.6,4.6h22.9c2.5,0,4.6-2.1,4.6-4.6V614.9C255.7,612.3,253.6,610.5,251.1,610.5z
					 M343.3,650.5c-15.3,0-24.1,2.6-37.5,11.2v-4.9c0-2.6-2.1-4.6-4.6-4.6h-20.1c-2.5,0-4.6,2.1-4.6,4.6v121.6
					c0,2.6,2.1,4.9,4.6,4.9h21.3c2.5,0,4.6-2.3,4.6-4.9v-93.4c9.7-5.1,18.3-8.4,26.1-8.4c17.8,0,19.7,5.8,19.7,26v75.8
					c0,2.6,2.1,4.9,4.6,4.9h21.3c2.5,0,4.6-2.3,4.6-4.9v-75.8C383.4,673,376.6,650.5,343.3,650.5z M467.3,713.4L437,694.9
					c-5.8-3.5-9.3-5.8-9.3-9.5c0-7.2,4.9-9.8,16-9.8c13.2,0,31.7,1.9,38.2,2.8h0.9c2.3,0,3.7-1.6,3.7-4.4v-13.5
					c0-2.8-1.4-4.6-4.2-5.3c-11.8-2.6-22.4-4.6-41.2-4.6c-29.4,0-43.9,11.6-43.9,34.9c0,13.5,8.1,25.1,19.4,32.1l31.7,19.5
					c7.4,4.6,10.2,7.4,10.2,11.9c0,6.3-2.1,11.2-16.4,11.2c-6.9,0-27.8-1.2-38.9-2.6h-0.9c-2.3,0-3.9,1.9-3.9,3.7v13.9
					c0,2.8,1.6,4.6,4.4,5.3c13,3.5,32.4,4.6,41.4,4.6c30.3,0,45.3-16,45.3-36.3C489.5,736.9,486.7,725.3,467.3,713.4z M529.9,652.1
					h-21.3c-2.5,0-4.6,2.1-4.6,4.6v121.6c0,2.6,2.1,4.9,4.6,4.9h21.3c2.5,0,4.6-2.3,4.6-4.9V656.7
					C534.6,654.2,532.5,652.1,529.9,652.1z M530.6,604.9h-22.4c-2.5,0-4.9,2.1-4.9,4.6V630c0,2.6,2.3,4.6,4.9,4.6h22.4
					c2.5,0,4.6-2.1,4.6-4.6v-20.5C535.3,607,533.2,604.9,530.6,604.9z M661.1,652.1H607c-40,0-55,19.5-55,42.8v1.6
					c0,11.6,2.5,20,9.5,27.2c-6.2,4.4-9.3,11.6-9.3,18.8v0.2c0,8.4,3.9,16.5,10.4,21.4c-7.4,6.7-11.8,16-11.8,25.6v2.1
					c0,24.4,19.9,38.6,57.4,38.6c39.3,0,56.7-12.8,56.7-36.5v-1.6c0-24.9-20.4-29.8-51.8-37.2l-27.3-6.5c-5.3-1.2-7.9-3-7.9-7.7
					c0-2.1,1.2-4.2,3.9-6c4.6,1.9,13,4,25.2,4c34.9,0,54.8-13.2,54.8-42.3v-1.6c0-8.1-2.1-13.2-5.8-18.6l7.6-3
					c2.8-1.2,3.7-1.6,3.7-5.1v-9.8C667.3,654.9,664.5,652.1,661.1,652.1z M580.6,789.7c0-8.4,2.3-11.4,5.8-16.3l20.6,4.9
					c24.3,5.8,27.3,8.8,27.3,13.9v1.6c0,8.4-3.9,13.3-26.1,13.3c-21.7,0-27.5-5.8-27.5-15.3V789.7z M631.7,697.2
					c0,11.6-5.6,18.4-24.7,18.4c-21.5,0-25-9.8-25-18.4v-1.9c0-10.9,5.3-19.8,25-19.8c19.9,0,24.7,8.6,24.7,19.8V697.2z
					 M742.7,650.5c-16.4,0-26.1,3.3-34.9,8.6v-48.1c0-2.6-2.1-4.6-4.6-4.6h-21.3c-2.5,0-4.6,2.1-4.6,4.6v167.4
					c0,2.6,2.1,4.9,4.6,4.9h21.3c2.5,0,4.6-2.3,4.6-4.9v-93.9c9.7-5.1,19-7.9,26.8-7.9c15.5,0,19,5.1,19,25.3v76.5
					c0,2.6,2.1,4.9,4.6,4.9h21.3c2.5,0,4.6-2.3,4.6-4.9v-76.5C784.1,673.2,774.6,650.5,742.7,650.5z M865.9,761.1h-12.3
					c-8.3,0-9-1.4-9-13v-73h20.8c2.5,0,4.6-2.1,4.6-4.6v-13.7c0-2.6-2.1-4.6-4.6-4.6h-20.8v-23.9c0-2.3-1.6-3.5-3.7-3.5H840
					l-21.5,3.7c-2.5,0.5-4.6,2.1-4.6,4.7v19.1h-21.7c-2.5,0-4.6,2.1-4.6,4.6v10.5c0,2.6,2.1,4.2,4.6,4.6l21.7,3.3v73
					c0,31.2,10.6,37,36.8,37c5.1,0,10.2-0.7,15.7-1.6c3-0.5,4.4-1.9,4.4-4.2v-14.6C870.8,762.3,868.9,761.1,865.9,761.1z"/>
			</g>
		</g>
		<g id="形状_1_拷贝_7">
			<g>
				<path class="st0 st1" d="M252.9,229.5c-17,0-29.3,9.8-29.3,33.1v14.3c0,23.4,12.3,33.1,29.3,33.1c17,0,29.3-9.8,29.3-33.1v-14.3
					C282.2,239.2,269.9,229.5,252.9,229.5z M267.8,276.9c0,14-4.8,20.3-14.9,20.3s-14.9-6.3-14.9-20.3v-14.3
					c0-14,4.8-20.3,14.9-20.3s14.9,6.3,14.9,20.3V276.9z M346.3,229.5h-8.8c-1.1,0-2,0.8-2,2l-0.1,57.6c0,0.6-0.3,1-0.5,1
					c-0.3,0-0.6-0.3-0.8-0.8l-23.9-56.4c-1.2-2.8-2.4-3.4-4.5-3.4h-11.1c-2.3,0-4.1,1.9-4.1,4.2l-0.1,74.3c0,1.2,0.9,2.1,2.1,2.1
					h8.7c1.1,0,2-1,2-2.1l0.1-55.2c0-0.6,0.2-0.8,0.5-0.8c0.3,0,0.6,0.2,0.9,0.8l22.7,53.5c1.6,3.8,3.8,3.8,6.3,3.8H344
					c2.3,0,4.1-1.9,4.1-4.2l0.1-74.4C348.2,230.3,347.4,229.5,346.3,229.5z M401.8,231c-3.3-0.5-7.3-1.5-19.5-1.5
					c-13.4,0-23.8,3.7-23.8,21.8v37c0,18,10.4,21.8,23.8,21.8c12.2,0,16.2-1,19.5-1.5c1.5-0.2,2.1-0.7,2.1-2.2v-6.8
					c0-1.2-0.9-2.1-2.1-2.1h-21c-6,0-8.1-2.1-8.1-9.1v-13.7h27.9c1.1,0,2.1-1,2.1-2.1v-7.6c0-1.2-0.9-2.1-2.1-2.1h-27.9v-11.5
					c0-7,2.2-9.1,8.1-9.1h21c1.1,0,2.1-1,2.1-2.1v-6.8C403.8,231.7,403.3,231.2,401.8,231z M452.4,240.3
					c-2.5-9.9-9.9-10.8-14.3-10.8c-4.4,0-11.8,1-14.3,10.8l-16.9,67.5l-0.1,0.5c0,1.1,0.8,1.8,1.9,1.8h10.9c0.9,0,1.7-0.8,2-1.8
					l4.7-20.2h23.6l4.7,20.2c0.2,1,1,1.8,2,1.8h10.9c1,0,1.9-0.7,1.9-1.8l-0.1-0.5L452.4,240.3z M429,276.1l7.4-32.5
					c0.3-1.3,0.6-1.7,1.6-1.7s1.3,0.4,1.6,1.7l7.4,32.5H429z M497.2,229.4c-7.5,0-14.8,0.5-20.2,1.4c-2.1,0.3-3.3,1.1-3.3,3.2
					l0.1,74.1c0,1.2,0.9,2.1,2.1,2.1h10.3c1.1,0,2-1,2-2.1l-0.1-28.8c2.4,0.1,6.5,0.4,9.2,0.4c15.8,0,29.6-6,29.6-24.8v-1
					C526.9,235.1,513.1,229.4,497.2,229.4z M512.7,254.9c0,8.5-4.3,12.7-15.4,12.7c-1.7,0-7.5-0.2-9.2-0.3V242
					c1.9-0.2,7-0.4,9.2-0.4c10.3,0,15.4,3.4,15.4,12.3V254.9z M595,229.4h-8.4c-1.6,0-3.1,1.1-3.8,2.5l-15.5,32.5
					c-0.5,1-0.7,1.5-1.1,1.5c-0.4,0-0.6-0.5-1.1-1.5l-15.5-32.5c-0.7-1.5-2.2-2.5-3.8-2.5h-8.4c-2.3,0-4.1,1.9-4.1,4.2v75
					c0,1.1,0.8,1.6,1.7,1.6h10.4c0.9,0,1.6-1.1,1.6-2.1v-51.3c0-0.7,0.1-1.1,0.3-1.1l0.5,0.6l10,20.3c0.6,1.2,2,1.8,3.3,1.8h10.4
					c1.3,0,2.7-0.6,3.3-1.8l9.9-20.3l0.5-0.6c0.2,0,0.3,0.3,0.3,1.1v51.3c0,1.1,0.7,2.1,1.6,2.1h10.4c0.9,0,1.7-0.5,1.7-1.6v-75
					C599.1,231.3,597.3,229.4,595,229.4z"/>
			</g>
		</g>
	</g>
</g>
</svg>
