<?xml version="1.0" encoding="utf-8"?>
<!-- Generator: Adobe Illustrator 19.0.0, SVG Export Plug-In . SVG Version: 6.00 Build 0)  -->
<svg version="1.1" id="图层_1" xmlns="http://www.w3.org/2000/svg" xmlns:xlink="http://www.w3.org/1999/xlink" x="0px" y="0px"
	 viewBox="-8 -220 994 1000" style="enable-background:new -8 -220 994 1000;" xml:space="preserve">
<style type="text/css">
	.st0{opacity:0.6;}
	.st1{fill:#FFFFFF;}
</style>
<g>
	<g id="_x35_f8ad069-0257-44c4-8c83-49b61449262d.psd_2_">
		<g id="MI_2_">
			<g id="形状_1_拷贝_5_5_">
				<g>
					<path class="st0 st1" d="M21.3,179C4.4,179-8,188.8-8,212.1v14.3c0,23.4,12.3,33.1,29.3,33.1c17,0,29.3-9.8,29.3-33.1v-14.3
						C50.7,188.8,38.3,179,21.3,179z M36.3,226.5c0,14-4.8,20.3-14.9,20.3s-14.9-6.3-14.9-20.3v-14.3c0-14,4.8-20.3,14.9-20.3
						s14.9,6.3,14.9,20.3V226.5z M114.8,179h-8.8c-1.1,0-2,0.8-2,2l-0.1,57.6c0,0.6-0.3,1-0.5,1c-0.3,0-0.6-0.3-0.8-0.8l-23.9-56.4
						c-1.2-2.8-2.4-3.4-4.5-3.4H63c-2.3,0-4.1,1.9-4.1,4.2l-0.1,74.3c0,1.2,0.9,2.1,2.1,2.1h8.7c1.1,0,2-1,2-2.1l0.1-55.2
						c0-0.6,0.2-0.8,0.5-0.8c0.3,0,0.6,0.2,0.9,0.8l22.7,53.5c1.6,3.8,3.8,3.8,6.3,3.8h10.4c2.3,0,4.1-1.9,4.1-4.2l0.1-74.4
						C116.7,179.9,115.9,179,114.8,179z M170.3,180.5c-3.3-0.5-7.3-1.5-19.5-1.5c-13.4,0-23.8,3.7-23.8,21.8v37
						c0,18,10.4,21.8,23.8,21.8c12.2,0,16.3-1,19.5-1.5c1.5-0.2,2.1-0.7,2.1-2.2v-6.8c0-1.2-0.9-2.1-2.1-2.1h-21
						c-6,0-8.1-2.1-8.1-9.1v-13.7h27.9c1.1,0,2.1-1,2.1-2.1v-7.6c0-1.2-0.9-2.1-2.1-2.1h-27.9v-11.5c0-7,2.2-9.1,8.1-9.1h21
						c1.1,0,2.1-1,2.1-2.1v-6.8C172.4,181.2,171.8,180.7,170.3,180.5z M220.9,189.8c-2.5-9.9-9.9-10.8-14.3-10.8
						c-4.4,0-11.8,1-14.3,10.8l-16.9,67.5l-0.1,0.5c0,1.1,0.8,1.8,1.9,1.8h10.9c0.9,0,1.7-0.8,2-1.8l4.7-20.2h23.7l4.7,20.2
						c0.2,1,1,1.8,2,1.8H236c1,0,1.9-0.7,1.9-1.8l-0.1-0.5L220.9,189.8z M197.6,225.6l7.4-32.5c0.3-1.3,0.6-1.7,1.6-1.7
						c1,0,1.3,0.4,1.6,1.7l7.4,32.5H197.6z M265.8,178.9c-7.5,0-14.8,0.5-20.2,1.4c-2.1,0.3-3.3,1.1-3.3,3.2l0.1,74.1
						c0,1.2,0.9,2.1,2.1,2.1h10.3c1.1,0,2-1,2-2.1l-0.1-28.8c2.4,0.1,6.5,0.4,9.2,0.4c15.8,0,29.6-6,29.6-24.8v-1
						C295.4,184.6,281.6,178.9,265.8,178.9z M281.2,204.4c0,8.5-4.3,12.7-15.4,12.7c-1.7,0-7.5-0.2-9.2-0.3v-25.3
						c1.9-0.2,7-0.4,9.2-0.4c10.3,0,15.4,3.4,15.4,12.3V204.4z M363.6,178.9h-8.4c-1.6,0-3.1,1.1-3.8,2.5L335.8,214
						c-0.5,1-0.7,1.5-1.1,1.5c-0.4,0-0.6-0.5-1.1-1.5L318,181.5c-0.7-1.5-2.2-2.5-3.8-2.5h-8.4c-2.3,0-4.1,1.9-4.1,4.2v75
						c0,1.1,0.8,1.6,1.7,1.6h10.4c0.9,0,1.6-1.1,1.6-2.1v-51.3c0-0.7,0.1-1.1,0.3-1.1l0.5,0.6l10,20.3c0.6,1.2,2,1.8,3.3,1.8H340
						c1.3,0,2.7-0.6,3.3-1.8l9.9-20.3l0.5-0.6c0.2,0,0.3,0.3,0.3,1.1v51.3c0,1.1,0.7,2.1,1.6,2.1H366c0.9,0,1.7-0.5,1.7-1.6v-75
						C367.7,180.8,365.9,178.9,363.6,178.9z"/>
				</g>
			</g>
		</g>
	</g>
	<g id="XMLID_2556_">
		<path id="XMLID_2599_" class="st1" d="M95.2,488c-3.5,0.9-19,3.7-37,3.7C30.1,491.7-8,477.9-8,420.1v-34.4
			c0-58.8,38.2-71.6,66.2-71.6c18,0,33.5,2.8,37,3.7c3,0.9,5.2,2.1,5.2,5.4v15.7c0,2.8-1.2,4.9-4.7,4.9c0,0-0.2,0-0.5,0
			c-8.2-0.7-24.1-1.9-36.5-1.9c-19.7,0-33.9,10.5-33.9,43.8v34.4c0,32.5,14.3,43.8,33.9,43.8c12.4,0,28.3-1.2,36.5-1.9
			c0.2,0,0.5,0,0.5,0c3.5,0,4.7,2.1,4.7,4.9v15.7C100.4,485.9,98.3,487,95.2,488z"/>
		<path id="XMLID_2597_" class="st1" d="M141.5,489.8h-21.8c-2.6,0-4.7-2.3-4.7-4.9V316.4c0-2.6,2.1-4.7,4.7-4.7h21.8
			c2.6,0,4.4,2.1,4.4,4.7v168.5C146,487.5,144.1,489.8,141.5,489.8z"/>
		<path id="XMLID_2592_" class="st1" d="M217.4,491.7c-36.8,0-55.9-24.8-55.9-58.3v-19c0-33.5,19.2-58.3,55.9-58.3
			s55.9,24.8,55.9,58.3v19C273.3,466.9,254.1,491.7,217.4,491.7z M242.4,414.5c0-19.2-8.7-31.6-25-31.6s-25.1,12.4-25.1,31.6v19
			c0,19.2,8.7,31.6,25.1,31.6s25-12.4,25-31.6V414.5z"/>
		<path id="XMLID_2590_" class="st1" d="M391,489.8h-21.5c-2.6,0-4.7-2.1-4.7-4.7v-5.4c-12.2,8-21.8,11.7-36.7,11.7
			c-11.7,0-22-3-28.8-9.8c-8.7-8.7-11.7-23.2-11.7-42.6v-76.3c0-2.6,2.1-4.9,4.7-4.9h21.5c2.6,0,4.7,2.3,4.7,4.9V439
			c0,11.7,0.9,18.5,5.4,22.5c3.3,2.8,7.3,4.2,14.5,4.2c8.7,0,19.9-5.9,26.5-9.4v-93.6c0-2.6,2.1-4.9,4.7-4.9H391
			c2.6,0,4.7,2.3,4.7,4.9v122.4C395.7,487.7,393.6,489.8,391,489.8z"/>
		<path id="XMLID_2587_" class="st1" d="M512.3,485.6c-14.5,3.7-32.1,6.1-47.1,6.1c-37.7,0-55.9-22.2-55.9-58.8v-18
			c0-36.5,18.3-58.8,55.9-58.8c5.6,0,13.8,0.5,22.5,1.6v-41.4c0-2.6,2.1-4.7,4.7-4.7h21.5c2.6,0,4.7,2.1,4.7,4.7v162.9
			C518.6,482.8,517.7,484.2,512.3,485.6z M487.7,383.1c-6.6-0.9-16.9-1.6-22.5-1.6c-20.1,0-25.1,14.3-25.1,33.5v18
			c0,19.2,4.9,33.5,25.1,33.5c8.4,0,18-0.7,22.5-1.6V383.1z"/>
		<path id="XMLID_2584_" class="st1" d="M693,343.1h-41v142.1c0,2.6-2.1,4.7-4.7,4.7h-23.2c-2.6,0-4.7-2.1-4.7-4.7V343.1h-41
			c-2.6,0-4.7-1.6-4.7-4.2v-18.5c0-2.6,2.1-4.5,4.7-4.5H693c2.6,0,4.7,1.9,4.7,4.5v18.5C697.7,341.4,695.5,343.1,693,343.1z"/>
		<path id="XMLID_2566_" class="st1" d="M793.4,434.6h-76.3v0.7c0,13.6,5.6,29.7,28.1,29.7c17.1,0,33.2-1.4,43.1-2.3
			c0.2,0,0.5,0,0.7,0c2.3,0,4.2,1.2,4.2,3.5v15.5c0,3.7-0.7,5.4-4.9,6.1c-15.2,2.8-24.3,4-45.4,4c-23.4,0-56.6-12.6-56.6-58.8v-17.3
			c0-36.5,20.4-59.5,56.2-59.5c36,0,55.7,24.6,55.7,59.5v13.1C798.1,432.5,796.7,434.6,793.4,434.6z M766.9,411.6
			c0-18.3-10.1-28.8-24.6-28.8s-25,10.3-25,28.8v0.9h49.6V411.6z"/>
		<path id="XMLID_2564_" class="st1" d="M855.2,491.7c-9.1,0-28.8-1.2-41.9-4.7c-2.8-0.7-4.5-2.6-4.5-5.4v-14c0-1.9,1.6-3.7,4-3.7
			c0.5,0,0.7,0,0.9,0c11.2,1.4,32.3,2.6,39.3,2.6c14.5,0,16.6-4.9,16.6-11.2c0-4.5-2.8-7.3-10.3-11.9l-32.1-19.7
			c-11.5-7-19.7-18.7-19.7-32.3c0-23.4,14.7-35.1,44.5-35.1c19,0,29.7,2.1,41.7,4.7c2.8,0.7,4.2,2.6,4.2,5.4v13.6
			c0,2.8-1.4,4.5-3.7,4.5c-0.5,0-0.7,0-0.9,0c-6.6-0.9-25.3-2.8-38.6-2.8c-11.2,0-16.2,2.6-16.2,9.8c0,3.7,3.5,6.1,9.4,9.6
			l30.7,18.7c19.7,11.9,22.5,23.6,22.5,35.6C901,475.6,885.8,491.7,855.2,491.7z"/>
		<path id="XMLID_2557_" class="st1" d="M981.5,490.1c-5.6,0.9-10.8,1.6-15.9,1.6c-26.5,0-37.2-5.9-37.2-37.2V381l-22-3.3
			c-2.6-0.5-4.7-2.1-4.7-4.7v-10.5c0-2.6,2.1-4.7,4.7-4.7h22v-19.2c0-2.6,2.1-4.2,4.7-4.7l21.8-3.7c0.2,0,0.7,0,0.9,0
			c2.1,0,3.7,1.2,3.7,3.5v24.1h21.1c2.6,0,4.7,2.1,4.7,4.7v13.8c0,2.6-2.1,4.7-4.7,4.7h-21.1v73.5c0,11.7,0.7,13.1,9.1,13.1h12.4
			c3,0,4.9,1.2,4.9,3.5v14.7C986,488.2,984.6,489.6,981.5,490.1z"/>
	</g>
	<path id="XMLID_2561_" class="st1" d="M923.1-56.2c-18.1-67.6-58.4-114.7-121-141.2c-62.6-26.5-131.3-29.6-206.2-9.5
		c-85.7,23-148.2,59.8-187.6,110.1C369-46.3,358.6,13.6,377.1,83.1c16,60.1,44.9,105,86.5,134.8c-8.9-17.4-14.3-39.9-14.3-68.6V89.6
		c0-102,66.2-124.4,115-124.4c31.3,0,58.1,4.9,64.2,6.5c5.3,1.6,8.9,3.7,8.9,9.3V8.3c0,4.9-2,8.5-8.1,8.5c0,0-0.4,0-0.8,0
		c-14.2-1.2-41.9-3.3-63.4-3.3c-34.1,0-58.9,18.3-58.9,76v59.7c0,56.5,24.8,76,58.9,76c21.5,0,49.2-2,63.4-3.3c0.4,0,0.8,0,0.8,0
		c6.1,0,8.1,3.7,8.1,8.5v27.2c0,0.7-0.1,1.4-0.2,2c18.9-1.5,38.5-4.6,58.8-9.2c-4.7-9.6-7-23-7-41.6V81.4l-38.2-5.7
		c-4.5-0.8-8.1-3.7-8.1-8.1V49.3c0-4.5,3.7-8.1,8.1-8.1H689V7.9c0-4.5,3.7-7.3,8.1-8.1l37.8-6.5c0.4,0,1.2,0,1.6,0
		c3.7,0,6.5,2,6.5,6.1v41.9h36.6c4.5,0,8.1,3.7,8.1,8.1v24c0,4.5-3.7,8.1-8.1,8.1h-36.6V209c0,20.3,1.2,22.8,15.8,22.8h1.3
		c62.2-23,108.3-55.8,138.1-98.3C934.8,81.5,943,18.3,923.1-56.2z"/>
</g>
</svg>
