<?xml version="1.0" encoding="utf-8"?>
<!-- Generator: Adobe Illustrator 19.0.0, SVG Export Plug-In . SVG Version: 6.00 Build 0)  -->
<svg version="1.1" id="图层_1" xmlns="http://www.w3.org/2000/svg" xmlns:xlink="http://www.w3.org/1999/xlink" x="0px" y="0px"
	 viewBox="212 -169.5 936.2 1000" style="enable-background:new 212 -169.5 936.2 1000;" xml:space="preserve">
<style type="text/css">
	.st0{fill:#FFFFFF;}
	.st1{opacity:0.6;}
</style>
<g id="d0059551-6f9e-4032-a555-d93b47960d56.psd">
	<g id="BI">
		<g id="形状_4_拷贝">
			<g>
				<path class="st0" d="M333.6,492.1v-3.9c0-17.1-8.3-28.8-22.5-34.7c14.1-5.9,21.3-19.4,21.3-34.5v-4.6
					c0-34.5-29.4-46.4-71.3-46.4c-18.1,0-32.6,1.4-38.7,2.3c-7.4,1.1-10.4,4.1-10.4,12.3v144c0,8.5,3.5,11,11.1,12.3
					c7.2,1.4,21.3,2.5,40,2.5C306.3,541.5,333.6,528.4,333.6,492.1z M244.3,394.8c4.9-0.2,11.3-0.5,16.9-0.5c29.6,0,40,5.9,40,21.9
					v3.2c0,11.7-6,21.7-27.5,21.7h-29.4V394.8z M302.2,491.6c0,16-9.3,23.5-38.9,23.5c-4.9,0-13.4-0.5-19-0.5v-50.3h29.4
					c21.8,0,28.5,11.7,28.5,24.2V491.6z M415.8,430.2v-16.5c0-2.5-2.1-4.6-4.6-4.6c-9.3,0-21.8,2.3-33.1,11v-4.8
					c0-2.5-2.1-4.6-4.6-4.6h-20.1c-2.5,0-4.6,2.1-4.6,4.6v119.5c0,2.5,2.1,4.8,4.6,4.8h21.3c2.5,0,4.6-2.3,4.6-4.8V443
					c9.7-5,19.4-8.2,31.9-8.2C413.7,434.8,415.8,432.7,415.8,430.2z M469.3,409.2c-36.3,0-55.3,24.2-55.3,56.9v18.5
					c0,32.7,19,56.9,55.3,56.9s55.3-24.2,55.3-56.9v-18.5C524.6,433.4,505.6,409.2,469.3,409.2z M494,484.6
					c0,18.7-8.6,30.8-24.8,30.8s-24.8-12.1-24.8-30.8v-18.5c0-18.7,8.6-30.8,24.8-30.8c16.2,0,24.8,12.1,24.8,30.8V484.6z
					 M683.2,521.1l21-105.1v-0.7c0-2.5-2.1-4.6-4.6-4.6h-22.5c-2.3,0-3.9,2.1-4.2,4.1l-14.6,96.7c-0.2,2.1-0.7,3.2-1.2,3.2
					s-1.2-0.9-1.6-3.2l-19.2-76.8c-2.3-8.9-5.1-9.8-13-9.8h-16.2c-7.9,0-10.6,0.9-13,9.8l-19,76.8c-0.5,2.3-1.2,3.2-1.6,3.2
					c-0.5,0-0.9-1.1-1.2-3.2l-14.6-96.7c-0.2-2.1-1.9-4.1-4.2-4.1h-22.4c-2.5,0-4.6,2.1-4.6,4.6v0.7l21.1,105.1
					c2.8,13.7,6.5,19.2,20.6,19.2h6.2c12.5,0,19-5.9,22-17.8l18.3-69.9c0.2-0.9,0.2-1.1,0.7-1.1s0.5,0.2,0.7,1.1l18.3,69.9
					c3,11.9,9.5,17.8,22,17.8h6.2C676.7,540.3,680.4,534.8,683.2,521.1z M728.5,475l31.7,19.2c7.4,4.6,10.2,7.3,10.2,11.7
					c0,6.2-2.1,11-16.4,11c-6.9,0-27.8-1.1-38.9-2.5h-0.9c-2.3,0-3.9,1.8-3.9,3.7v13.7c0,2.7,1.6,4.6,4.4,5.3
					c13,3.4,32.4,4.6,41.4,4.6c30.3,0,45.4-15.8,45.4-35.6c0-11.7-2.8-23.1-22.2-34.7L749,453.1c-5.8-3.4-9.3-5.7-9.3-9.4
					c0-7.1,4.9-9.6,16-9.6c13.2,0,31.7,1.8,38.2,2.7h0.9c2.3,0,3.7-1.6,3.7-4.3V419c0-2.7-1.4-4.6-4.2-5.3
					c-11.8-2.5-22.4-4.6-41.2-4.6c-29.4,0-44,11.4-44,34.3C709.1,456.7,717.2,468.1,728.5,475z M867,409.2
					c-35.4,0-55.6,22.4-55.6,58v16.9c0,45,32.9,57.4,56,57.4c20.8,0,29.9-1.1,44.9-3.9c4.2-0.7,4.9-2.3,4.9-5.9v-15.1
					c0-2.3-1.9-3.4-4.2-3.4h-0.7c-9.7,0.9-25.7,2.3-42.6,2.3c-22.2,0-27.8-15.8-27.8-29v-0.7h75.5c3.2,0,4.6-2.1,4.6-5.7v-12.8
					C922,433.2,902.6,409.2,867,409.2z M891.3,464.2h-49.1v-0.9c0-18,10.4-28.1,24.8-28.1c14.3,0,24.3,10.3,24.3,28.1V464.2z
					 M999.1,409.2c-9.3,0-21.8,2.3-33.1,11v-4.8c0-2.5-2.1-4.6-4.6-4.6h-20.1c-2.6,0-4.6,2.1-4.6,4.6v119.5c0,2.5,2.1,4.8,4.6,4.8
					h21.3c2.6,0,4.6-2.3,4.6-4.8V443c9.7-5,19.4-8.2,31.9-8.2c2.5,0,4.6-2.1,4.6-4.6v-16.5C1003.8,411.2,1001.7,409.2,999.1,409.2z
					 M239.6,610.6h-22.9c-2.5,0-4.6,1.9-4.6,4.4v163.5c0,2.6,2.1,4.6,4.6,4.6h22.9c2.5,0,4.6-2.1,4.6-4.6V615
					C244.2,612.5,242.2,610.6,239.6,610.6z M331.9,650.6c-15.3,0-24.1,2.6-37.5,11.2v-4.9c0-2.6-2.1-4.6-4.6-4.6h-20.1
					c-2.5,0-4.6,2.1-4.6,4.6v121.5c0,2.6,2.1,4.9,4.6,4.9H291c2.5,0,4.6-2.3,4.6-4.9V685c9.7-5.1,18.3-8.4,26.1-8.4
					c17.8,0,19.7,5.8,19.7,26v75.7c0,2.6,2.1,4.9,4.6,4.9h21.3c2.5,0,4.6-2.3,4.6-4.9v-75.7C371.9,673.1,365.2,650.6,331.9,650.6z
					 M455.8,713.5L425.5,695c-5.8-3.5-9.2-5.8-9.2-9.5c0-7.2,4.9-9.8,16-9.8c13.2,0,31.7,1.9,38.2,2.8h0.9c2.3,0,3.7-1.6,3.7-4.4
					v-13.5c0-2.8-1.4-4.6-4.2-5.3c-11.8-2.6-22.4-4.6-41.2-4.6c-29.4,0-43.9,11.6-43.9,34.8c0,13.5,8.1,25.1,19.4,32.1l31.7,19.5
					c7.4,4.6,10.2,7.4,10.2,11.8c0,6.3-2.1,11.2-16.4,11.2c-6.9,0-27.8-1.2-38.9-2.6h-0.9c-2.3,0-3.9,1.9-3.9,3.7v13.9
					c0,2.8,1.6,4.6,4.4,5.3c13,3.5,32.4,4.6,41.4,4.6c30.3,0,45.3-16,45.3-36.2C478,737,475.2,725.4,455.8,713.5z M519.2,605.1
					h-22.4c-2.5,0-4.9,2.1-4.9,4.6v20.4c0,2.6,2.3,4.6,4.9,4.6h22.4c2.5,0,4.6-2.1,4.6-4.6v-20.4
					C523.8,607.2,521.7,605.1,519.2,605.1z M518.5,652.2h-21.3c-2.5,0-4.6,2.1-4.6,4.6v121.5c0,2.6,2.1,4.9,4.6,4.9h21.3
					c2.5,0,4.6-2.3,4.6-4.9V656.9C523.1,654.3,521,652.2,518.5,652.2z M649.6,652.2h-54.1c-40,0-55,19.5-55,42.7v1.6
					c0,11.6,2.5,20,9.5,27.2c-6.2,4.4-9.2,11.6-9.2,18.8v0.2c0,8.4,3.9,16.5,10.4,21.4c-7.4,6.7-11.8,16-11.8,25.6v2.1
					c0,24.4,19.9,38.6,57.4,38.6c39.3,0,56.7-12.8,56.7-36.5v-1.6c0-24.9-20.4-29.7-51.8-37.2l-27.3-6.5c-5.3-1.2-7.9-3-7.9-7.7
					c0-2.1,1.2-4.2,3.9-6c4.6,1.9,13,3.9,25.2,3.9c34.9,0,54.8-13.2,54.8-42.3V695c0-8.1-2.1-13.2-5.8-18.6l7.6-3
					c2.8-1.2,3.7-1.6,3.7-5.1v-9.8C655.8,655,653,652.2,649.6,652.2z M569.1,789.7c0-8.4,2.3-11.4,5.8-16.3l20.6,4.9
					c24.3,5.8,27.3,8.8,27.3,13.9v1.6c0,8.4-3.9,13.2-26.1,13.2c-21.7,0-27.5-5.8-27.5-15.3L569.1,789.7L569.1,789.7z M620.2,697.3
					c0,11.6-5.6,18.4-24.7,18.4c-21.5,0-25-9.8-25-18.4v-1.9c0-10.9,5.3-19.7,25-19.7c19.9,0,24.7,8.6,24.7,19.7V697.3z
					 M731.2,650.6c-16.4,0-26.1,3.3-34.9,8.6v-48.1c0-2.6-2.1-4.6-4.6-4.6h-21.3c-2.5,0-4.6,2.1-4.6,4.6v167.3
					c0,2.6,2.1,4.9,4.6,4.9h21.3c2.5,0,4.6-2.3,4.6-4.9v-93.9c9.7-5.1,19-7.9,26.8-7.9c15.5,0,19,5.1,19,25.3v76.4
					c0,2.6,2.1,4.9,4.6,4.9H768c2.5,0,4.6-2.3,4.6-4.9v-76.4C772.6,673.4,763.1,650.6,731.2,650.6z M854.4,761.2h-12.3
					c-8.3,0-9-1.4-9-13v-72.9h20.8c2.5,0,4.6-2.1,4.6-4.6V657c0-2.6-2.1-4.6-4.6-4.6h-20.8v-23.9c0-2.3-1.6-3.5-3.7-3.5h-0.9
					l-21.5,3.7c-2.5,0.5-4.6,2.1-4.6,4.6v19h-21.7c-2.5,0-4.6,2.1-4.6,4.6v10.5c0,2.6,2.1,4.2,4.6,4.6l21.7,3.3v72.9
					c0,31.1,10.6,36.9,36.8,36.9c5.1,0,10.2-0.7,15.7-1.6c3-0.5,4.4-1.9,4.4-4.2v-14.6C859.3,762.3,857.4,761.2,854.4,761.2z"/>
			</g>
		</g>
		<g id="形状_4_拷贝_3">
			<g>
				<path class="st0" d="M1137.8-5.9c-17.9-67.6-57.9-114.6-119.9-141s-130.2-29.6-204.4-9.5c-84.9,23-146.9,59.7-185.9,110
					s-49.4,110.2-31,179.6c13.8,52,37.1,92.7,70,122.1V41.9c0-14.9,5.3-20.3,18.5-22.3c10.7-1.7,36.5-4.1,68.5-4.1
					c74.3,0,126.4,21.5,126.4,84v8.3c0,27.3-12.7,51.7-37.7,62.4c25,10.8,39.8,31.8,39.8,62.9v7c0,33.7-12.8,56.2-35.4,70.3
					c26.5-1.6,54.4-6.3,83.9-14.1V107.7c0-4.5,3.7-8.3,8.2-8.3h37.8c4.5,0,8.2,3.7,8.2,8.3v170.8c57.5-22.8,100.4-54.4,128.6-95
					C1149.3,131.6,1157.5,68.5,1137.8-5.9z M985.9,60.1c0,4.5-3.7,8.3-8.2,8.3h-39.8c-4.5,0-8.6-3.7-8.6-8.3V23.7
					c0-4.6,4.1-8.3,8.6-8.3h39.8c4.5,0,8.2,3.7,8.2,8.3V60.1z M775.8,190h-52.1v91c9.8,0,25,0.8,33.6,0.8
					c52.5,0,68.9-13.7,68.9-42.6v-5.4C826.3,211.1,814.4,190,775.8,190z M824.6,108.5v-5.8c0-28.9-18.5-39.7-71-39.7
					c-9.8,0-21.3,0.4-30,0.8v84h52.1C813.9,147.8,824.6,129.6,824.6,108.5z"/>
			</g>
		</g>
		<g id="形状_4_拷贝_2">
			<g>
				<path class="st0 st1" d="M241.3,229.5c-17,0-29.3,9.8-29.3,33.1v14.3c0,23.4,12.3,33.1,29.3,33.1s29.3-9.8,29.3-33.1v-14.3
					C270.6,239.3,258.2,229.5,241.3,229.5z M256.2,276.9c0,14-4.8,20.3-14.9,20.3s-14.9-6.3-14.9-20.3v-14.3
					c0-14,4.8-20.3,14.9-20.3s14.9,6.3,14.9,20.3V276.9z M334.7,229.5h-8.8c-1.1,0-2,0.8-2,2l-0.1,57.6c0,0.6-0.3,1-0.5,1
					c-0.3,0-0.6-0.3-0.8-0.8l-23.9-56.4c-1.2-2.8-2.4-3.4-4.5-3.4H283c-2.3,0-4.1,1.9-4.1,4.2l-0.1,74.3c0,1.2,0.9,2.1,2.1,2.1h8.7
					c1.1,0,2-1,2-2.1l0.1-55.2c0-0.6,0.2-0.8,0.5-0.8s0.6,0.2,0.9,0.8l22.7,53.5c1.6,3.8,3.8,3.8,6.3,3.8h10.4
					c2.3,0,4.1-1.9,4.1-4.2l0.1-74.4C336.6,230.3,335.8,229.5,334.7,229.5z M390.2,231c-3.3-0.5-7.3-1.5-19.5-1.5
					c-13.4,0-23.8,3.7-23.8,21.8v37c0,18,10.4,21.8,23.8,21.8c12.2,0,16.3-1,19.5-1.5c1.5-0.2,2.1-0.7,2.1-2.2v-6.8
					c0-1.2-0.9-2.1-2.1-2.1h-21c-6,0-8.1-2.1-8.1-9.1v-13.7H389c1.1,0,2.1-1,2.1-2.1V265c0-1.2-0.9-2.1-2.1-2.1h-27.9v-11.5
					c0-7,2.2-9.1,8.1-9.1h21c1.1,0,2.1-1,2.1-2.1v-6.8C392.3,231.7,391.8,231.2,390.2,231z M440.9,240.3
					c-2.5-9.9-9.9-10.8-14.3-10.8c-4.4,0-11.8,1-14.3,10.8l-16.9,67.5l-0.1,0.5c0,1.1,0.8,1.8,1.9,1.8h10.9c0.9,0,1.7-0.8,2-1.8
					l4.7-20.2h23.7l4.7,20.2c0.2,1,1,1.8,2,1.8h10.9c1,0,1.9-0.7,1.9-1.8l-0.1-0.5L440.9,240.3z M417.5,276.1l7.4-32.5
					c0.3-1.3,0.6-1.7,1.6-1.7s1.3,0.4,1.6,1.7l7.4,32.5H417.5z M485.7,229.4c-7.5,0-14.8,0.5-20.2,1.4c-2.1,0.3-3.3,1.1-3.3,3.2
					l0.1,74.1c0,1.2,0.9,2.1,2.1,2.1h10.3c1.1,0,2-1,2-2.1l-0.1-28.8c2.4,0.1,6.5,0.4,9.2,0.4c15.8,0,29.6-6,29.6-24.8v-1
					C515.4,235.1,501.6,229.4,485.7,229.4z M501.2,254.9c0,8.5-4.3,12.7-15.4,12.7c-1.7,0-7.5-0.2-9.2-0.3V242
					c1.9-0.2,7-0.4,9.2-0.4c10.3,0,15.4,3.4,15.4,12.3V254.9z M583.5,229.4h-8.4c-1.6,0-3.1,1.1-3.8,2.5l-15.5,32.5
					c-0.5,1-0.7,1.5-1.1,1.5c-0.4,0-0.6-0.5-1.1-1.5L538,232c-0.7-1.5-2.2-2.5-3.8-2.5h-8.4c-2.3,0-4.1,1.9-4.1,4.2v75
					c0,1.1,0.8,1.6,1.7,1.6h10.4c0.9,0,1.6-1.1,1.6-2.1v-51.3c0-0.7,0.1-1.1,0.3-1.1l0.5,0.6l10,20.3c0.6,1.2,2,1.8,3.3,1.8h10.4
					c1.3,0,2.7-0.6,3.3-1.8l9.9-20.3l0.5-0.6c0.2,0,0.3,0.3,0.3,1.1v51.3c0,1.1,0.7,2.1,1.6,2.1h10.4c0.9,0,1.7-0.5,1.7-1.6v-75
					C587.7,231.3,585.8,229.4,583.5,229.4z"/>
			</g>
		</g>
	</g>
</g>
</svg>
