<svg xmlns="http://www.w3.org/2000/svg" viewBox="155.4 -169.5 942.1 1000" enable-background="new 155.4 -169.5 942.1 1000"><style type="text/css">.st0{fill:#FFFFFF;} .st1{opacity:0.6;}</style><g id="MI"><path class="st0" d="M1086.9-6.1c-18.1-67.5-58.5-114.4-121.1-140.8-62.7-26.4-131.5-29.6-206.5-9.5-85.8 23-148.4 59.6-187.8 109.9-39.5 50.2-50 110-31.4 179.4 13.9 52 37.5 92.6 70.7 121.9v-223c0-9.1 7.5-16.6 16.6-16.6h34.1c6.7 0 12.5 4.1 15.4 9.9L739.8 152c2.1 3.7 2.9 5.8 4.6 5.8 1.7 0 2.5-2.1 4.6-5.8l62.8-126.8c2.9-5.8 8.7-9.9 15.4-9.9h34.1c9.2 0 16.6 7.5 16.6 16.6v263.7c.7-.2 1.4-.4 2.2-.5 12.8-3.4 24.9-7.2 36.6-11.3v-176c0-4.6 3.7-8.3 8.3-8.3h38.3c4.6 0 8.3 3.7 8.3 8.3v152.3c38.6-20.5 68.8-46.1 90.4-76.8 36.5-52 44.8-115.1 24.9-189.4zM972.9 60c0 4.6-3.7 8.3-8.3 8.3h-40.4c-4.6 0-8.7-3.7-8.7-8.3V23.5c0-4.6 4.2-8.3 8.7-8.3h40.4c4.6 0 8.3 3.7 8.3 8.3V60zM821 118c-.4 0-1.2 1.2-2.1 2.5l-40 79.2c-2.5 4.6-7.9 7-13.3 7h-42c-5.4 0-10.8-2.5-13.3-7l-40.4-79.2c-.8-1.2-1.7-2.5-2.1-2.5-.8 0-1.2 1.2-1.2 4.1v167.5c45.4 19.4 97.2 25.2 155.7 17.2V122.1c-.1-2.9-.5-4.1-1.3-4.1z" id="shape1"/><path class="st0" d="M218 475h23.4c3 0 6-1.4 7.4-4l22.2-44.4c.5-.7.9-1.4 1.2-1.4.5 0 .7.7.7 2.3v108c0 2.3 1.6 4.6 3.7 4.6H300c2.1 0 3.9-1.2 3.9-3.5V377c0-5.1-4.2-9.3-9.3-9.3h-19c-3.7 0-6.9 2.3-8.6 5.6l-34.9 71.1c-1.2 2.1-1.6 3.3-2.5 3.3-.9 0-1.4-1.2-2.5-3.3l-34.9-71.1c-1.6-3.3-4.9-5.6-8.6-5.6h-19c-5.1 0-9.3 4.2-9.3 9.3v159.8c0 2.3 1.9 3.5 3.9 3.5h23.4c2.1 0 3.7-2.3 3.7-4.6v-108c0-1.6.2-2.3.7-2.3.2 0 .7.7 1.2 1.4l22.4 44.4c1.4 2.5 4.4 3.8 7.4 3.8zm158-67.3c-36.3 0-55.3 24.6-55.3 57.8v18.8c0 33.2 19 57.8 55.3 57.8s55.3-24.6 55.3-57.8v-18.8c0-33.2-19-57.8-55.3-57.8zm24.8 76.6c0 19-8.6 31.4-24.7 31.4-16.2 0-24.8-12.3-24.8-31.4v-18.8c0-19 8.6-31.4 24.8-31.4 16.2 0 24.7 12.3 24.7 31.4v18.8zm51.3 51.8c14.3 3.7 31.7 6 46.5 6 37.2 0 55.3-22.1 55.3-58.3V466c0-36.2-18-58.3-55.3-58.3-5.6 0-13.7.5-22.2 1.6v-41.1c0-2.6-2.1-4.6-4.6-4.6h-21.3c-2.5 0-4.6 2.1-4.6 4.6v161.7c-.1 3.5.9 4.8 6.2 6.2zm24.3-101.7c6.5-.9 16.7-1.6 22.2-1.6 19.9 0 24.8 14.2 24.8 33.2v17.9c0 19-4.9 33.2-24.8 33.2-8.3 0-17.8-.7-22.2-1.6v-81.1zm117.9 105.9c2.5 0 4.6-2.3 4.6-4.9V414c0-2.6-2.1-4.6-4.6-4.6H573c-2.5 0-4.6 2.1-4.6 4.6v121.5c0 2.6 2.1 4.9 4.6 4.9h21.3zm.7-178.1h-22.4c-2.5 0-4.9 2.1-4.9 4.6v20.4c0 2.6 2.3 4.6 4.9 4.6H595c2.5 0 4.6-2.1 4.6-4.6v-20.4c.1-2.5-2-4.6-4.6-4.6zm28.9 178.1h21.5c2.5 0 4.4-2.3 4.4-4.9V368.2c0-2.6-1.9-4.6-4.4-4.6h-21.5c-2.5 0-4.6 2.1-4.6 4.6v167.2c0 2.6 2.1 4.9 4.6 4.9zm97.6 1.9c20.8 0 29.8-1.2 44.9-3.9 4.2-.7 4.9-2.3 4.9-6V517c0-2.3-1.9-3.5-4.2-3.5h-.7c-9.7.9-25.7 2.3-42.6 2.3-22.2 0-27.8-16-27.8-29.5v-.7h75.4c3.2 0 4.6-2.1 4.6-5.8v-13c0-34.6-19.4-59-55.1-59-35.4 0-55.5 22.8-55.5 59V484c.2 45.6 33 58.2 56.1 58.2zm-25.2-79.5c0-18.4 10.4-28.6 24.7-28.6s24.3 10.5 24.3 28.6v.9h-49v-.9zM182.9 610.6H160c-2.5 0-4.6 1.9-4.6 4.4v163.5c0 2.6 2.1 4.6 4.6 4.6h22.9c2.5 0 4.6-2.1 4.6-4.6V615.1c0-2.6-2.1-4.5-4.6-4.5zm92.3 40c-15.3 0-24.1 2.6-37.5 11.1v-4.9c0-2.6-2.1-4.6-4.6-4.6H213c-2.5 0-4.6 2.1-4.6 4.6v121.5c0 2.6 2.1 4.9 4.6 4.9h21.3c2.5 0 4.6-2.3 4.6-4.9V685c9.7-5.1 18.3-8.4 26.1-8.4 17.8 0 19.7 5.8 19.7 26v75.7c0 2.6 2.1 4.9 4.6 4.9h21.3c2.5 0 4.6-2.3 4.6-4.9v-75.7c0-29.5-6.7-52-40-52zm123.9 62.9L368.8 695c-5.8-3.5-9.3-5.8-9.3-9.5 0-7.2 4.9-9.8 16-9.8 13.2 0 31.7 1.9 38.2 2.8h.9c2.3 0 3.7-1.6 3.7-4.4v-13.5c0-2.8-1.4-4.6-4.2-5.3-11.8-2.6-22.4-4.6-41.2-4.6-29.4 0-43.9 11.6-43.9 34.8 0 13.5 8.1 25.1 19.4 32.1l31.7 19.5c7.4 4.6 10.2 7.4 10.2 11.8 0 6.3-2.1 11.1-16.4 11.1-6.9 0-27.8-1.2-38.9-2.6h-.9c-2.3 0-3.9 1.9-3.9 3.7V775c0 2.8 1.6 4.6 4.4 5.3 13 3.5 32.4 4.6 41.4 4.6 30.3 0 45.3-16 45.3-36.2 0-11.7-2.7-23.3-22.2-35.2zm62.7-61.3h-21.3c-2.5 0-4.6 2.1-4.6 4.6v121.5c0 2.6 2.1 4.9 4.6 4.9h21.3c2.5 0 4.6-2.3 4.6-4.9V656.9c0-2.6-2-4.7-4.6-4.7zm.7-47.1h-22.4c-2.5 0-4.9 2.1-4.9 4.6v20.4c0 2.6 2.3 4.6 4.9 4.6h22.4c2.5 0 4.6-2.1 4.6-4.6v-20.4c0-2.5-2.1-4.6-4.6-4.6zM593 652.2h-54.1c-40 0-55.1 19.5-55.1 42.7v1.6c0 11.6 2.5 20 9.5 27.2-6.2 4.4-9.3 11.6-9.3 18.8v.2c0 8.4 3.9 16.5 10.4 21.4-7.4 6.7-11.8 16-11.8 25.6v2.1c0 24.4 19.9 38.6 57.4 38.6 39.3 0 56.7-12.8 56.7-36.5v-1.6c0-24.9-20.4-29.7-51.8-37.2l-27.3-6.5c-5.3-1.2-7.9-3-7.9-7.7 0-2.1 1.2-4.2 3.9-6 4.6 1.9 13 3.9 25.2 3.9 34.9 0 54.8-13.2 54.8-42.3V695c0-8.1-2.1-13.2-5.8-18.6l7.6-3c2.8-1.2 3.7-1.6 3.7-5.1v-9.8c.1-3.5-2.7-6.3-6.1-6.3zm-80.5 137.5c0-8.4 2.3-11.4 5.8-16.3l20.6 4.9c24.3 5.8 27.3 8.8 27.3 13.9v1.6c0 8.4-3.9 13.2-26.1 13.2-21.7 0-27.5-5.8-27.5-15.3v-2zm51.1-92.4c0 11.6-5.6 18.4-24.7 18.4-21.5 0-25-9.8-25-18.4v-1.9c0-10.9 5.3-19.7 25-19.7 19.9 0 24.7 8.6 24.7 19.7v1.9zm111-46.7c-16.4 0-26.1 3.3-34.9 8.6v-48.1c0-2.6-2.1-4.6-4.6-4.6h-21.3c-2.5 0-4.6 2.1-4.6 4.6v167.2c0 2.6 2.1 4.9 4.6 4.9H635c2.5 0 4.6-2.3 4.6-4.9v-93.8c9.7-5.1 19-7.9 26.8-7.9 15.5 0 19 5.1 19 25.3v76.4c0 2.6 2.1 4.9 4.6 4.9h21.3c2.5 0 4.6-2.3 4.6-4.9v-76.4c.1-28.5-9.4-51.3-41.3-51.3zm123.3 110.6h-12.3c-8.3 0-9-1.4-9-13v-72.9h20.8c2.5 0 4.6-2.1 4.6-4.6V657c0-2.6-2.1-4.6-4.6-4.6h-20.8v-23.9c0-2.3-1.6-3.5-3.7-3.5h-.9l-21.5 3.7c-2.5.5-4.6 2.1-4.6 4.6v19h-21.7c-2.5 0-4.6 2.1-4.6 4.6v10.5c0 2.6 2.1 4.2 4.6 4.6l21.7 3.3v72.9c0 31.1 10.6 36.9 36.8 36.9 5.1 0 10.2-.7 15.7-1.6 3-.5 4.4-1.9 4.4-4.2v-14.6c-.1-2.4-1.9-3.5-4.9-3.5z" id="shape1_9"/><path class="st0 st1" d="M184.7 229.5c-17 0-29.3 9.8-29.3 33.1v14.3c0 23.4 12.3 33.1 29.3 33.1s29.3-9.8 29.3-33.1v-14.3c0-23.4-12.3-33.1-29.3-33.1zm14.9 47.4c0 14-4.8 20.3-14.9 20.3-10.1 0-14.9-6.3-14.9-20.3v-14.3c0-14 4.8-20.3 14.9-20.3 10.1 0 14.9 6.3 14.9 20.3v14.3zm78.5-47.4h-8.8c-1.1 0-2 .8-2 2l-.1 57.6c0 .6-.3 1-.5 1-.3 0-.6-.3-.8-.8L242 232.9c-1.2-2.8-2.4-3.4-4.5-3.4h-11.1c-2.3 0-4.1 1.9-4.1 4.2l-.1 74.3c0 1.2.9 2.1 2.1 2.1h8.7c1.1 0 2-1 2-2.1l.1-55.2c0-.6.2-.8.5-.8s.6.2.9.8l22.7 53.5c1.6 3.8 3.8 3.8 6.3 3.8h10.4c2.3 0 4.1-1.9 4.1-4.2l.1-74.4c0-1.2-.8-2-2-2zm55.6 1.5c-3.3-.5-7.3-1.5-19.5-1.5-13.4 0-23.8 3.7-23.8 21.8v37c0 18 10.4 21.8 23.8 21.8 12.2 0 16.3-1 19.5-1.5 1.5-.2 2.1-.7 2.1-2.2v-6.8c0-1.2-.9-2.1-2.1-2.1h-21c-6 0-8.1-2.1-8.1-9.1v-13.7h27.9c1.1 0 2.1-1 2.1-2.1V265c0-1.2-.9-2.1-2.1-2.1h-27.9v-11.5c0-7 2.2-9.1 8.1-9.1h21c1.1 0 2.1-1 2.1-2.1v-6.8c-.1-1.7-.6-2.2-2.1-2.4zm50.6 9.3c-2.5-9.9-9.9-10.8-14.3-10.8s-11.8 1-14.3 10.8l-16.9 67.5-.1.5c0 1.1.8 1.8 1.9 1.8h10.9c.9 0 1.7-.8 2-1.8l4.7-20.2h23.7l4.7 20.2c.2 1 1 1.8 2 1.8h10.9c1 0 1.9-.7 1.9-1.8l-.1-.5-17-67.5zm-23.4 35.8l7.4-32.5c.3-1.3.6-1.7 1.6-1.7s1.3.4 1.6 1.7l7.4 32.5h-18zm68.3-46.7c-7.5 0-14.8.5-20.2 1.4-2.1.3-3.3 1.1-3.3 3.2l.1 74.1c0 1.2.9 2.1 2.1 2.1h10.3c1.1 0 2-1 2-2.1l-.1-28.8c2.4.1 6.5.4 9.2.4 15.8 0 29.6-6 29.6-24.8v-1c-.1-18.8-13.9-24.5-29.7-24.5zm15.4 25.5c0 8.5-4.3 12.7-15.4 12.7-1.7 0-7.5-.2-9.2-.3V242c1.9-.2 7-.4 9.2-.4 10.3 0 15.4 3.4 15.4 12.3v1zm82.4-25.5h-8.4c-1.6 0-3.1 1.1-3.8 2.5l-15.5 32.5c-.5 1-.7 1.5-1.1 1.5-.4 0-.6-.5-1.1-1.5l-15.5-32.5c-.7-1.5-2.2-2.5-3.8-2.5h-8.4c-2.3 0-4.1 1.9-4.1 4.2v75c0 1.1.8 1.6 1.7 1.6h10.4c.9 0 1.6-1.1 1.6-2.1v-51.3c0-.7.1-1.1.3-1.1l.5.6 10 20.3c.6 1.2 2 1.8 3.3 1.8h10.4c1.3 0 2.7-.6 3.3-1.8l9.9-20.3.5-.6c.2 0 .3.3.3 1.1v51.3c0 1.1.7 2.1 1.6 2.1h10.4c.9 0 1.7-.5 1.7-1.6v-75c-.1-2.3-2-4.2-4.2-4.2z" id="shape1_5"/></g></svg>